<svg 
 xmlns="http://www.w3.org/2000/svg"
 xmlns:xlink="http://www.w3.org/1999/xlink"
 width="214.805px" height="82.19px">
<path fill-rule="evenodd"  fill="rgb(241, 143, 32)"
 d="M79.935,57.255 C84.866,45.561 96.410,38.053 108.935,38.255 C121.105,38.451 132.148,45.894 136.935,57.255 L79.935,57.255 Z"/>
<path fill-rule="evenodd"  stroke="rgb(241, 143, 32)" stroke-width="0.51px" stroke-linecap="butt" stroke-linejoin="miter" fill="rgb(241, 143, 32)"
 d="M64.121,52.791 L63.749,53.719 L53.749,49.719 L54.121,48.791 L64.121,52.791 Z"/>
<path fill-rule="evenodd"  stroke="rgb(241, 143, 32)" stroke-width="0.51px" stroke-linecap="butt" stroke-linejoin="miter" fill="rgb(241, 143, 32)"
 d="M66.212,43.839 L65.658,44.671 L53.658,36.671 L54.212,35.839 L66.212,43.839 Z"/>
<path fill-rule="evenodd"  stroke="rgb(241, 143, 32)" stroke-width="0.51px" stroke-linecap="butt" stroke-linejoin="miter" fill="rgb(241, 143, 32)"
 d="M73.264,37.879 L72.606,38.631 L64.606,31.631 L65.264,30.879 L73.264,37.879 Z"/>
<path fill-rule="evenodd"  stroke="rgb(241, 143, 32)" stroke-width="0.51px" stroke-linecap="butt" stroke-linejoin="miter" fill="rgb(241, 143, 32)"
 d="M79.347,32.972 L78.523,33.538 L67.523,17.538 L68.347,16.972 L79.347,32.972 Z"/>
<path fill-rule="evenodd"  stroke="rgb(241, 143, 32)" stroke-width="0.51px" stroke-linecap="butt" stroke-linejoin="miter" fill="rgb(241, 143, 32)"
 d="M86.364,26.998 L85.506,27.512 L79.506,17.512 L80.364,16.998 L86.364,26.998 Z"/>
<path fill-rule="evenodd"  stroke="rgb(241, 143, 32)" stroke-width="0.51px" stroke-linecap="butt" stroke-linejoin="miter" fill="rgb(241, 143, 32)"
 d="M93.412,24.104 L92.458,24.406 L86.458,5.406 L87.412,5.104 L93.412,24.104 Z"/>
<path fill-rule="evenodd"  stroke="rgb(241, 143, 32)" stroke-width="0.51px" stroke-linecap="butt" stroke-linejoin="miter" fill="rgb(241, 143, 32)"
 d="M101.428,22.173 L100.442,22.337 L98.442,10.337 L99.428,10.173 L101.428,22.173 Z"/>
<path fill-rule="evenodd"  stroke="rgb(241, 143, 32)" stroke-width="0.51px" stroke-linecap="butt" stroke-linejoin="miter" fill="rgb(241, 143, 32)"
 d="M108.935,22.255 L107.935,22.255 L107.935,1.255 L108.935,1.255 L108.935,22.255 Z"/>
<path fill-rule="evenodd"  stroke="rgb(241, 143, 32)" stroke-width="0.51px" stroke-linecap="butt" stroke-linejoin="miter" fill="rgb(241, 143, 32)"
 d="M116.920,22.543 L115.950,22.300 L118.450,10.134 L119.420,10.376 L116.920,22.543 Z"/>
<path fill-rule="evenodd"  stroke="rgb(241, 143, 32)" stroke-width="0.51px" stroke-linecap="butt" stroke-linejoin="miter" fill="rgb(241, 143, 32)"
 d="M124.404,24.428 L123.466,24.082 L130.466,5.082 L131.404,5.428 L124.404,24.428 Z"/>
<path fill-rule="evenodd"  stroke="rgb(241, 143, 32)" stroke-width="0.51px" stroke-linecap="butt" stroke-linejoin="miter" fill="rgb(241, 143, 32)"
 d="M132.382,28.479 L131.488,28.031 L136.488,18.031 L137.382,18.479 L132.382,28.479 Z"/>
<path fill-rule="evenodd"  stroke="rgb(241, 143, 32)" stroke-width="0.51px" stroke-linecap="butt" stroke-linejoin="miter" fill="rgb(241, 143, 32)"
 d="M138.335,33.555 L137.535,32.955 L149.535,16.955 L150.335,17.555 L138.335,33.555 Z"/>
<path fill-rule="evenodd"  stroke="rgb(241, 143, 32)" stroke-width="0.51px" stroke-linecap="butt" stroke-linejoin="miter" fill="rgb(241, 143, 32)"
 d="M143.247,39.645 L142.623,38.865 L152.623,30.865 L153.247,31.645 L143.247,39.645 Z"/>
<path fill-rule="evenodd"  stroke="rgb(241, 143, 32)" stroke-width="0.51px" stroke-linecap="butt" stroke-linejoin="miter" fill="rgb(241, 143, 32)"
 d="M163.635,35.855 L164.235,36.655 L148.235,48.655 L147.635,47.855 L163.635,35.855 Z"/>
<path fill-rule="evenodd"  stroke="rgb(241, 143, 32)" stroke-width="0.51px" stroke-linecap="butt" stroke-linejoin="miter" fill="rgb(241, 143, 32)"
 d="M163.728,48.800 L164.142,49.710 L153.142,54.710 L152.728,53.800 L163.728,48.800 Z"/>
<path fill-rule="evenodd"  stroke="rgb(255, 120, 0)" stroke-width="0.88px" stroke-linecap="butt" stroke-linejoin="miter" fill="none"
 d="M69.935,57.255 C75.366,40.166 91.184,28.469 108.935,28.255 C127.049,28.037 143.392,39.822 148.935,57.255 "/>
<path fill-rule="evenodd"  stroke="rgb(23, 163, 77)" stroke-width="1.87px" stroke-linecap="butt" stroke-linejoin="miter" fill="none"
 d="M5.935,69.255 C5.935,69.255 47.114,58.255 65.935,58.255 C70.268,58.255 148.935,58.255 148.935,58.255 C161.518,58.338 206.768,66.363 210.935,69.255 C215.102,72.147 169.427,58.652 148.935,59.255 C146.102,59.338 73.352,59.280 65.935,59.255 C58.518,59.230 15.102,66.697 5.935,70.255 C-3.232,73.813 5.935,69.255 5.935,69.255 Z"/>
<text kerning="auto" font-family="Myriad Pro" fill="rgb(0, 0, 0)" font-size="22px" x="33.935px" y="81.255px"><tspan font-size="22px" font-family="Book Antiqua" fill="#17A34D">Golden&#32;Middle</tspan></text>
</svg>